<?xml version="1.0" standalone="no"?>
<!DOCTYPE svg PUBLIC "-//W3C//DTD SVG 20010904//EN"
 "http://www.w3.org/TR/2001/REC-SVG-20010904/DTD/svg10.dtd">
<svg version="1.0" xmlns="http://www.w3.org/2000/svg"
 width="424.000000pt" height="141.000000pt" viewBox="0 0 424.000000 141.000000"
 preserveAspectRatio="xMidYMid meet">

<g transform="translate(0.000000,141.000000) scale(0.100000,-0.100000)"
fill="#000000" stroke="none">
<path d="M780 1344 c-204 -43 -397 -154 -575 -328 -152 -150 -209 -261 -171
-335 23 -44 63 -61 144 -61 128 0 265 66 309 149 26 50 31 122 9 141 -8 6 -16
21 -18 33 -3 25 -37 35 -49 15 -6 -9 1 -21 23 -39 31 -26 31 -28 20 -66 -18
-61 -74 -118 -156 -159 -121 -60 -231 -57 -251 5 -16 51 44 154 179 306 175
198 579 374 706 308 32 -16 35 -22 34 -60 0 -26 -15 -71 -41 -125 -43 -89
-204 -358 -226 -376 -7 -6 -54 -18 -105 -27 -112 -19 -142 -30 -142 -50 0 -19
21 -19 81 -1 39 12 106 21 131 17 3 -1 -9 -27 -29 -58 -46 -76 -157 -305 -177
-366 -9 -26 -16 -64 -16 -85 0 -33 1 -35 13 -17 8 11 30 63 51 116 46 116 204
397 240 423 22 17 48 20 191 24 135 4 166 2 170 -9 3 -8 -29 -91 -70 -184 -42
-94 -78 -188 -81 -210 l-5 -40 24 27 c14 15 42 71 63 125 20 54 57 138 81 187
39 78 47 87 66 82 52 -14 97 -18 97 -8 0 9 -43 33 -77 43 -31 9 128 264 239
384 94 102 114 135 83 135 -37 0 -210 -212 -325 -399 -34 -55 -67 -101 -73
-101 -7 0 -90 -2 -184 -5 -140 -4 -173 -2 -173 8 0 8 29 60 65 118 152 242
196 372 144 433 -39 45 -107 54 -219 30z"/>
<path d="M3379 1048 c-13 -18 -44 -71 -69 -118 -43 -81 -47 -85 -85 -92 -22
-4 -73 -7 -112 -7 -59 -1 -73 2 -73 14 0 22 -28 18 -42 -5 -12 -18 -24 -20
-131 -20 -114 0 -118 1 -112 20 5 16 2 20 -19 20 -30 0 -49 -28 -35 -53 9 -15
34 -17 271 -17 l260 0 -7 -27 c-16 -69 -47 -115 -89 -132 -103 -44 -203 -74
-221 -67 -18 6 -14 12 33 53 36 31 52 52 52 69 0 38 -27 36 -157 -12 -134 -50
-137 -49 -143 10 -3 27 -11 51 -17 54 -7 2 -42 -24 -78 -59 -63 -60 -88 -72
-66 -31 6 12 11 25 11 31 0 20 -29 11 -45 -12 -8 -13 -31 -29 -51 -35 -19 -6
-82 -38 -139 -72 -57 -34 -109 -59 -114 -56 -11 7 5 59 39 125 11 23 20 55 18
69 -2 22 -8 27 -33 27 -25 1 -29 5 -27 23 5 34 -38 29 -74 -9 l-29 -30 25 -19
c20 -15 22 -20 11 -34 -7 -9 -25 -16 -40 -16 -34 -1 -90 -27 -176 -84 -74 -49
-111 -59 -102 -28 3 9 20 54 38 99 27 68 30 85 19 97 -8 10 -21 14 -36 10 -20
-5 -24 -2 -24 15 0 31 -45 28 -75 -5 -22 -24 -24 -54 -4 -54 21 0 7 -28 -17
-34 -15 -4 -41 -18 -59 -31 -71 -55 -106 -25 -65 54 19 39 19 41 2 41 -10 0
-23 -5 -30 -12 -9 -9 -15 -9 -24 0 -38 38 -129 -17 -148 -89 -6 -22 -8 -44 -5
-49 11 -18 47 -11 101 20 l53 29 3 -32 c5 -51 46 -49 121 4 35 24 58 35 54 26
-3 -9 -2 -19 3 -22 5 -3 21 17 36 45 36 66 94 88 61 23 -8 -15 -23 -56 -32
-90 -14 -51 -15 -66 -5 -78 26 -31 88 -10 202 68 75 51 110 66 116 48 9 -27
38 -8 60 39 16 34 30 50 42 50 23 0 35 -16 19 -26 -20 -12 -59 -108 -59 -145
0 -75 59 -76 164 -4 69 47 165 99 167 90 1 -3 3 -9 4 -15 1 -5 3 -14 4 -20 3
-27 49 -5 104 50 33 33 62 58 64 56 3 -2 0 -21 -6 -43 -13 -47 -52 -85 -151
-146 -97 -59 -138 -91 -230 -182 -119 -117 -175 -228 -135 -268 28 -29 93 -21
173 18 122 61 286 260 333 404 35 107 43 117 103 140 106 40 106 40 106 -12 0
-88 64 -99 198 -37 47 22 87 38 90 35 3 -3 -2 -39 -12 -81 -15 -70 -15 -79 -1
-100 8 -13 25 -24 37 -24 34 0 108 53 187 135 40 41 77 75 82 75 5 0 3 -15 -5
-33 -7 -19 -17 -56 -21 -84 -5 -41 -3 -53 13 -73 20 -25 20 -25 57 -7 44 21
126 83 205 155 l54 49 12 -34 c14 -39 12 -37 40 -51 29 -15 74 -2 187 56 81
41 88 47 63 50 -18 2 -65 -12 -123 -38 -87 -38 -123 -45 -123 -22 0 5 23 28
51 52 40 34 50 47 47 69 -2 20 -9 27 -32 29 -52 6 -74 -7 -187 -113 -115 -108
-195 -169 -210 -159 -17 10 -9 63 22 151 34 97 82 198 99 208 7 4 79 7 162 7
130 -1 152 -3 163 -18 11 -16 13 -16 20 5 7 23 9 24 117 19 93 -5 115 -9 140
-28 35 -26 49 -19 22 11 -42 48 -73 53 -341 57 -139 2 -253 7 -253 12 0 4 18
47 40 95 22 48 40 92 40 98 0 24 -53 -43 -99 -124 l-48 -84 -114 -6 c-63 -3
-116 -4 -119 -2 -2 2 20 51 49 109 38 73 51 108 44 115 -7 7 -18 1 -34 -23z
m151 -256 c0 -21 -96 -143 -177 -225 -95 -97 -160 -150 -174 -141 -23 14 1
116 62 262 l41 101 42 4 c83 7 206 7 206 -1z m330 -111 c0 -15 -30 -41 -46
-41 -11 0 -12 4 -4 19 13 26 50 41 50 22z m-2340 -10 c0 -11 -67 -71 -80 -71
-17 0 -11 17 16 49 24 29 64 42 64 22z m1440 1 c0 -13 -23 -32 -37 -32 -11 0
-11 5 -3 20 10 19 40 28 40 12z m-335 -164 c-49 -172 -312 -458 -419 -458 -96
0 -1 158 189 315 105 86 213 165 227 165 5 0 6 -10 3 -22z"/>
</g>
</svg>
